<svg xmlns="http://www.w3.org/2000/svg" xmlns:xlink="http://www.w3.org/1999/xlink" width="33" height="33" viewBox="0 0 33 33">
  <defs>
    <clipPath id="clip-LikeButton_6">
      <rect width="33" height="33"/>
    </clipPath>
  </defs>
  <g id="LikeButton_6" data-name="LikeButton – 6" clip-path="url(#clip-LikeButton_6)">
    <g id="Union_4" data-name="Union 4" transform="translate(196.154 -170.392) rotate(-45)" fill="none">
      <path d="M-266.967,13v-.033H-267V-1.842c0-4.506,3.368-8.158,7.522-8.158,4.093,0,7.422,3.545,7.52,7.957,4.413.1,7.957,3.428,7.957,7.52,0,4.154-3.652,7.522-8.158,7.522Z" stroke="none"/>
      <path d="M -252.1583862304688 12.00010108947754 C -248.21142578125 12.00010108947754 -245.0003356933594 9.074161529541016 -245.0003356933594 5.477701187133789 C -245.0003356933594 3.778781175613403 -245.7141876220703 2.169790983200073 -247.0103759765625 0.9471210837364197 C -248.3261413574219 -0.2940189242362976 -250.0910491943359 -1.000708937644958 -251.9799652099609 -1.042768955230713 L -252.9361724853516 -1.064058899879456 L -252.9574584960938 -2.020258903503418 C -252.99951171875 -3.90916895866394 -253.7062072753906 -5.674068927764893 -254.9473419189453 -6.989849090576172 C -256.1700134277344 -8.286048889160156 -257.7789916992188 -8.999898910522461 -259.4778442382812 -8.999898910522461 C -263.0743408203125 -8.999898910522461 -266.0003356933594 -5.78882884979248 -266.0003356933594 -1.841888904571533 L -266.0003356933594 11.9667911529541 L -265.967041015625 11.9667911529541 L -265.967041015625 12.00010108947754 L -252.1583862304688 12.00010108947754 M -252.1583862304688 13.00010108947754 L -266.967041015625 13.00010108947754 L -266.967041015625 12.9667911529541 L -267.0003356933594 12.9667911529541 L -267.0003356933594 -1.841888904571533 C -267.0003356933594 -6.347468852996826 -263.6324157714844 -9.999898910522461 -259.4778442382812 -9.999898910522461 C -255.3852844238281 -9.999898910522461 -252.0559539794922 -6.455358982086182 -251.9577026367188 -2.042518854141235 C -247.5448455810547 -1.94425892829895 -244.0003356933594 1.385021090507507 -244.0003356933594 5.477701187133789 C -244.0003356933594 9.63214111328125 -247.6528167724609 13.00010108947754 -252.1583862304688 13.00010108947754 Z" stroke="none" fill="#fff"/>
    </g>
  </g>
</svg>
