<svg xmlns="http://www.w3.org/2000/svg" xmlns:xlink="http://www.w3.org/1999/xlink" width="30" height="30" viewBox="0 0 30 30">
  <defs>
    <clipPath id="clip-SocialsCommentButton">
      <rect width="30" height="30"/>
    </clipPath>
  </defs>
  <g id="SocialsCommentButton" clip-path="url(#clip-SocialsCommentButton)">
    <g id="Icon_awesome-comment-alt" data-name="Icon awesome-comment-alt" transform="translate(2.5 4.5)" fill="none">
      <path d="M21.994,0H3.142A2.954,2.954,0,0,0,0,2.713v12.21a2.954,2.954,0,0,0,3.142,2.713H7.855V21.2a.6.6,0,0,0,.938.411l6.132-3.973h7.07a2.954,2.954,0,0,0,3.142-2.713V2.713A2.954,2.954,0,0,0,21.994,0Z" stroke="none"/>
      <path d="M 3.142030715942383 1.999998092651367 C 2.498861312866211 1.999998092651367 2.000001907348633 2.38349723815918 2.000001907348633 2.713417053222656 L 2.000001907348633 14.92376804351807 C 2.000001907348633 15.25368785858154 2.498861312866211 15.63718795776367 3.142030715942383 15.63718795776367 L 9.855071067810059 15.63718795776367 L 9.855071067810059 18.53851890563965 L 14.33340072631836 15.63718795776367 L 21.99421119689941 15.63718795776367 C 22.63738059997559 15.63718795776367 23.1362419128418 15.25368785858154 23.1362419128418 14.92376804351807 L 23.1362419128418 2.713417053222656 C 23.1362419128418 2.38349723815918 22.63738059997559 1.999998092651367 21.99421119689941 1.999998092651367 L 3.142030715942383 1.999998092651367 M 3.142030715942383 -1.9073486328125e-06 L 21.99421119689941 -1.9073486328125e-06 C 23.72724151611328 -1.9073486328125e-06 25.13624000549316 1.216798782348633 25.13624000549316 2.713417053222656 L 25.13624000549316 14.92376804351807 C 25.13624000549316 16.42038726806641 23.72724151611328 17.63718795776367 21.99421119689941 17.63718795776367 L 14.92464065551758 17.63718795776367 L 8.792770385742188 21.60978698730469 C 8.404935836791992 21.8556957244873 7.855070114135742 21.61402893066406 7.855070114135742 21.19853782653809 L 7.855070114135742 17.63718795776367 L 3.142030715942383 17.63718795776367 C 1.409000396728516 17.63718795776367 1.9073486328125e-06 16.42038726806641 1.9073486328125e-06 14.92376804351807 L 1.9073486328125e-06 2.713417053222656 C 1.9073486328125e-06 1.216798782348633 1.409000396728516 -1.9073486328125e-06 3.142030715942383 -1.9073486328125e-06 Z" stroke="none" fill="#fff"/>
    </g>
  </g>
</svg>
