<svg xmlns="http://www.w3.org/2000/svg" xmlns:xlink="http://www.w3.org/1999/xlink" width="30" height="30" viewBox="0 0 30 30">
  <defs>
    <clipPath id="clip-ShuffleButton">
      <rect width="30" height="30"/>
    </clipPath>
  </defs>
  <g id="ShuffleButton" clip-path="url(#clip-ShuffleButton)">
    <g id="Icon_ionic-ios-shuffle" data-name="Icon ionic-ios-shuffle" transform="translate(-2.1 -3.007)">
      <path id="Path_993" data-name="Path 993" d="M28.54,20.257a.99.99,0,0,0-.7-.288.973.973,0,0,0-.7.288.961.961,0,0,0-.288.7,1,1,0,0,0,.288.7l1.146,1.139H22.985l-8.719-10.9-.007-.007a1.009,1.009,0,0,0-.759-.352H5.484a.984.984,0,0,0,0,1.969h7.552l3.691,4.641-3.691,4.641H5.484a.984.984,0,0,0,0,1.969H13.5a.982.982,0,0,0,.752-.352l.007-.007L18,19.695l3.741,4.7.007.007a.982.982,0,0,0,.752.352h5.934l-1.146,1.139a.95.95,0,0,0-.288.7,1,1,0,0,0,.288.7.99.99,0,0,0,.7.288.973.973,0,0,0,.7-.288l2.362-2.348a1.528,1.528,0,0,0,0-2.18Z" fill="#fff"/>
      <path id="Path_994" data-name="Path 994" d="M19.645,16.552a.4.4,0,0,0,.323.148h.007a.41.41,0,0,0,.323-.155l2.665-3.326h5.33l-1.146,1.139a.95.95,0,0,0-.288.7,1,1,0,0,0,.288.7.99.99,0,0,0,.7.288.973.973,0,0,0,.7-.288l2.5-2.489a1.528,1.528,0,0,0,0-2.18L28.68,8.733a.99.99,0,0,0-.7-.288.973.973,0,0,0-.7.288.961.961,0,0,0-.288.7,1,1,0,0,0,.288.7l1.146,1.139H22.5a.982.982,0,0,0-.752.352l-.007.007-2.834,3.53a.415.415,0,0,0,.007.534Z" fill="#fff"/>
    </g>
  </g>
</svg>
