<svg xmlns="http://www.w3.org/2000/svg" xmlns:xlink="http://www.w3.org/1999/xlink" width="45" height="45" viewBox="0 0 45 45">
  <defs>
    <clipPath id="clip-FavoriteShareIconClicked">
      <rect width="45" height="45"/>
    </clipPath>
  </defs>
  <g id="FavoriteShareIconClicked" clip-path="url(#clip-FavoriteShareIconClicked)">
    <g id="Subtraction_11" data-name="Subtraction 11" transform="translate(353.271 987.001)" fill="#fff">
      <path d="M -322.9693298339844 -953.5864868164062 L -330.2998962402344 -960.2726440429688 L -330.7715759277344 -960.702880859375 L -331.2433166503906 -960.272705078125 L -338.5702819824219 -953.5902709960938 L -338.5702819824219 -974.000732421875 C -338.5702819824219 -974.7174682617188 -337.98681640625 -975.300537109375 -337.2696228027344 -975.300537109375 L -324.27001953125 -975.300537109375 C -323.5527954101562 -975.300537109375 -322.9693298339844 -974.7174682617188 -322.9693298339844 -974.000732421875 L -322.9693298339844 -953.5864868164062 Z" stroke="none"/>
      <path d="M -323.6693115234375 -955.1724243164062 L -323.6693115234375 -974.000732421875 C -323.6693115234375 -974.3314819335938 -323.9387817382812 -974.6005249023438 -324.27001953125 -974.6005249023438 L -337.2696228027344 -974.6005249023438 C -337.600830078125 -974.6005249023438 -337.8703002929688 -974.3314819335938 -337.8703002929688 -974.000732421875 L -337.8703002929688 -955.1760864257812 L -330.7715759277344 -961.6503295898438 L -323.6693115234375 -955.1724243164062 M -322.2693176269531 -952.0006103515625 L -322.27099609375 -952.0021362304688 L -330.7716064453125 -959.7554931640625 L -339.2702941894531 -952.0044555664062 L -339.2702941894531 -974.000732421875 C -339.2702941894531 -975.1034545898438 -338.372802734375 -976.0005493164062 -337.2696228027344 -976.0005493164062 L -324.27001953125 -976.0005493164062 C -323.1668395996094 -976.0005493164062 -322.2693176269531 -975.1034545898438 -322.2693176269531 -974.000732421875 L -322.2693176269531 -952.0006103515625 Z" stroke="none" fill="#fff"/>
    </g>
  </g>
</svg>
