<svg xmlns="http://www.w3.org/2000/svg" width="24.256" height="24.262" viewBox="0 0 24.256 24.262">
  <path id="Icon_ionic-ios-settings" data-name="Icon ionic-ios-settings" d="M26.753,16.628a3.121,3.121,0,0,1,2-2.912,12.372,12.372,0,0,0-1.5-3.607,3.163,3.163,0,0,1-1.27.272A3.114,3.114,0,0,1,23.14,6a12.335,12.335,0,0,0-3.6-1.5,3.119,3.119,0,0,1-5.824,0A12.372,12.372,0,0,0,10.109,6,3.114,3.114,0,0,1,7.26,10.381a3.06,3.06,0,0,1-1.27-.272A12.646,12.646,0,0,0,4.5,13.722a3.12,3.12,0,0,1,.006,5.824A12.372,12.372,0,0,0,6,23.153a3.116,3.116,0,0,1,4.112,4.112,12.444,12.444,0,0,0,3.607,1.5,3.113,3.113,0,0,1,5.811,0,12.372,12.372,0,0,0,3.607-1.5,3.119,3.119,0,0,1,4.112-4.112,12.444,12.444,0,0,0,1.5-3.607A3.136,3.136,0,0,1,26.753,16.628ZM16.685,21.675a5.053,5.053,0,1,1,5.053-5.053A5.052,5.052,0,0,1,16.685,21.675Z" transform="translate(-4.5 -4.5)" fill="#fff"/>
</svg>
