<svg xmlns="http://www.w3.org/2000/svg" xmlns:xlink="http://www.w3.org/1999/xlink" width="60" height="60" viewBox="0 0 60 60">
  <defs>
    <clipPath id="clip-ShareIconBookmark">
      <rect width="60" height="60"/>
    </clipPath>
  </defs>
  <g id="ShareIconBookmark" clip-path="url(#clip-ShareIconBookmark)">
    <g id="Subtraction_11" data-name="Subtraction 11" transform="translate(355 983)" fill="none">
      <path d="M-310.27-930.139l0,0-14.5-14.817-14.5,14.812V-974a2,2,0,0,1,2-2h25a2,2,0,0,1,2,2v43.86Z" stroke="none"/>
      <path d="M -311.2696228027344 -932.5908813476562 L -311.2696228027344 -973.9998168945312 C -311.2696228027344 -974.5516357421875 -311.7181091308594 -975.0005493164062 -312.2694091796875 -975.0005493164062 L -337.2696228027344 -975.0005493164062 C -337.8214111328125 -975.0005493164062 -338.2702941894531 -974.5516357421875 -338.2702941894531 -973.9998168945312 L -338.2702941894531 -932.597900390625 L -325.4877624511719 -945.6580810546875 L -324.7730712890625 -946.3883056640625 L -324.0584106445312 -945.6580810546875 L -311.2696228027344 -932.5908813476562 M -310.2696228027344 -930.139404296875 L -310.2713317871094 -930.1411743164062 L -324.7731018066406 -944.9586181640625 L -339.2702941894531 -930.1465454101562 L -339.2702941894531 -973.9998168945312 C -339.2702941894531 -975.10302734375 -338.372802734375 -976.0005493164062 -337.2696228027344 -976.0005493164062 L -312.2694091796875 -976.0005493164062 C -311.166748046875 -976.0005493164062 -310.2696228027344 -975.10302734375 -310.2696228027344 -973.9998168945312 L -310.2696228027344 -930.141845703125 L -310.2696228027344 -930.139404296875 Z" stroke="none" fill="#fff"/>
    </g>
  </g>
</svg>
