<svg xmlns="http://www.w3.org/2000/svg" xmlns:xlink="http://www.w3.org/1999/xlink" width="49" height="49" viewBox="0 0 49 49">
  <defs>
    <clipPath id="clip-NotificationsButton">
      <rect width="49" height="49"/>
    </clipPath>
  </defs>
  <g id="NotificationsButton" clip-path="url(#clip-NotificationsButton)">
    <g id="Group_2825" data-name="Group 2825" transform="translate(-0.5)">
      <g id="Group_2819" data-name="Group 2819" transform="translate(0 1)">
        <g id="Path_1567" data-name="Path 1567" transform="translate(9 9)" fill="none">
          <path d="M5,0H27a5,5,0,0,1,5,5V24a5,5,0,0,1-5,5H5a5,5,0,0,1-5-5V5A5,5,0,0,1,5,0Z" stroke="none"/>
          <path d="M 5 2 C 3.345790863037109 2 2 3.345790863037109 2 5 L 2 24 C 2 25.65420913696289 3.345790863037109 27 5 27 L 27 27 C 28.65420913696289 27 30 25.65420913696289 30 24 L 30 5 C 30 3.345790863037109 28.65420913696289 2 27 2 L 5 2 M 5 0 L 27 0 C 29.76141929626465 0 32 2.238580703735352 32 5 L 32 24 C 32 26.76141929626465 29.76141929626465 29 27 29 L 5 29 C 2.238580703735352 29 0 26.76141929626465 0 24 L 0 5 C 0 2.238580703735352 2.238580703735352 0 5 0 Z" stroke="none" fill="#fff"/>
        </g>
        <rect id="Rectangle_2814" data-name="Rectangle 2814" width="20" height="2" transform="translate(11.828 10.414) rotate(45)" fill="#fff"/>
        <rect id="Rectangle_2815" data-name="Rectangle 2815" width="20.004" height="2" transform="translate(39.586 11.828) rotate(135)" fill="#fff"/>
        <rect id="Rectangle_2816" data-name="Rectangle 2816" width="1" height="1" transform="translate(25.007 24.999) rotate(45)" fill="#fff"/>
        <path id="Path_1566" data-name="Path 1566" d="M5,0H27a5,5,0,0,1,5,5V24a5,5,0,0,1-5,5H5a5,5,0,0,1-5-5V5A5,5,0,0,1,5,0Z" transform="translate(9 9)" fill="none"/>
      </g>
    </g>
  </g>
</svg>
