<svg xmlns="http://www.w3.org/2000/svg" xmlns:xlink="http://www.w3.org/1999/xlink" width="13" height="13" viewBox="0 0 13 13">
  <defs>
    <clipPath id="clip-LikeCommentButtonClicked">
      <rect width="13" height="13"/>
    </clipPath>
  </defs>
  <g id="LikeCommentButtonClicked" clip-path="url(#clip-LikeCommentButtonClicked)">
    <g id="Union_4" data-name="Union 4" transform="translate(195.369 -177.156) rotate(-45)" fill="#fff">
      <path d="M -260.5473022460938 -0.2498989105224609 L -266.7358703613281 -0.2498989105224609 L -266.7358703613281 -0.2643789052963257 L -266.7503356933594 -0.2643789052963257 L -266.7503356933594 -6.452939033508301 C -266.7503356933594 -8.270889282226562 -265.395263671875 -9.749898910522461 -263.7296752929688 -9.749898910522461 C -262.9396362304688 -9.749898910522461 -262.1923522949219 -9.418938636779785 -261.62548828125 -8.817978858947754 C -261.0544128417969 -8.212578773498535 -260.7293090820312 -7.40165901184082 -260.7099914550781 -6.534598827362061 L -260.7046813964844 -6.295548915863037 L -260.4656372070312 -6.290228843688965 C -259.5985717773438 -6.270928859710693 -258.7876586914062 -5.945798873901367 -258.1822509765625 -5.374748706817627 C -257.581298828125 -4.807868957519531 -257.2503356933594 -4.0605788230896 -257.2503356933594 -3.270509004592896 C -257.2503356933594 -1.604938864707947 -258.7293395996094 -0.2498989105224609 -260.5473022460938 -0.2498989105224609 Z" stroke="none"/>
      <path d="M -260.5473022460938 -0.4998989105224609 C -258.8672180175781 -0.4998989105224609 -257.5003356933594 -1.742788910865784 -257.5003356933594 -3.270509004592896 C -257.5003356933594 -3.991019010543823 -257.8034362792969 -4.673738956451416 -258.3538208007812 -5.192888736724854 C -258.9141235351562 -5.721418857574463 -259.6660766601562 -6.022368907928467 -260.47119140625 -6.040288925170898 L -260.9492797851562 -6.050939083099365 L -260.9599304199219 -6.529038906097412 C -260.9778442382812 -7.334138870239258 -261.27880859375 -8.086109161376953 -261.8073425292969 -8.646429061889648 C -262.3265075683594 -9.196799278259277 -263.0091857910156 -9.499898910522461 -263.7296752929688 -9.499898910522461 C -265.2574157714844 -9.499898910522461 -266.5003356933594 -8.133038520812988 -266.5003356933594 -6.452939033508301 L -266.5003356933594 -0.5143789052963257 L -266.4858703613281 -0.5143789052963257 L -266.4858703613281 -0.4998989105224609 L -260.5473022460938 -0.4998989105224609 M -260.5473022460938 0.0001010894775390625 L -266.9858703613281 0.0001010894775390625 L -266.9858703613281 -0.01437891088426113 L -267.0003356933594 -0.01437891088426113 L -267.0003356933594 -6.452939033508301 C -267.0003356933594 -8.41188907623291 -265.5360107421875 -9.999898910522461 -263.7296752929688 -9.999898910522461 C -261.9503173828125 -9.999898910522461 -260.5027770996094 -8.458799362182617 -260.4600524902344 -6.540168762207031 C -258.5414428710938 -6.497448921203613 -257.0003356933594 -5.049938678741455 -257.0003356933594 -3.270509004592896 C -257.0003356933594 -1.464228868484497 -258.58837890625 0.0001010894775390625 -260.5473022460938 0.0001010894775390625 Z" stroke="none" fill="#fff"/>
    </g>
  </g>
</svg>
