<svg xmlns="http://www.w3.org/2000/svg" xmlns:xlink="http://www.w3.org/1999/xlink" width="33" height="33" viewBox="0 0 33 33">
  <defs>
    <clipPath id="clip-LikeButton_40">
      <rect width="33" height="33"/>
    </clipPath>
  </defs>
  <g id="LikeButton_40" data-name="LikeButton – 40" clip-path="url(#clip-LikeButton_40)">
    <g id="Subtraction_11" data-name="Subtraction 11" transform="translate(347 978)" fill="none">
      <path d="M-321.27-948.14l0,0-9-9-9,9V-974a2,2,0,0,1,2-2h14a2,2,0,0,1,2,2v25.86Z" stroke="none"/>
      <path d="M -322.2702941894531 -950.5543212890625 L -322.2702941894531 -973.9998168945312 C -322.2702941894531 -974.5510864257812 -322.7188110351562 -974.9996337890625 -323.2701110839844 -974.9996337890625 L -337.2696228027344 -974.9996337890625 C -337.8213806152344 -974.9996337890625 -338.2702941894531 -974.5510864257812 -338.2702941894531 -973.9998168945312 L -338.2702941894531 -950.5579223632812 L -330.9792175292969 -957.8489990234375 L -330.2720947265625 -958.5560913085938 L -329.5649719238281 -957.8489990234375 L -322.2702941894531 -950.5543212890625 M -321.2702941894531 -948.1401977539062 L -321.2720031738281 -948.141845703125 L -330.2720947265625 -957.1419067382812 L -339.2702941894531 -948.1437377929688 L -339.2702941894531 -973.9998168945312 C -339.2702941894531 -975.1025390625 -338.372802734375 -975.9996337890625 -337.2696228027344 -975.9996337890625 L -323.2701110839844 -975.9996337890625 C -322.1674194335938 -975.9996337890625 -321.2702941894531 -975.1025390625 -321.2702941894531 -973.9998168945312 L -321.2702941894531 -948.142578125 L -321.2702941894531 -948.1401977539062 Z" stroke="none" fill="#fff"/>
    </g>
  </g>
</svg>
