<svg xmlns="http://www.w3.org/2000/svg" xmlns:xlink="http://www.w3.org/1999/xlink" width="30" height="30" viewBox="0 0 30 30">
  <defs>
    <clipPath id="clip-SearchButtonTabClicked">
      <rect width="30" height="30"/>
    </clipPath>
  </defs>
  <g id="SearchButtonTabClicked" clip-path="url(#clip-SearchButtonTabClicked)">
    <g id="Group_2" data-name="Group 2" transform="translate(2.861 2.5)">
      <g id="Path_1552" data-name="Path 1552" transform="translate(3 1)" fill="none">
        <path d="M7.5,0A7.5,7.5,0,0,1,15,7.5a7.693,7.693,0,0,1-1.552,4.569A7.343,7.343,0,0,1,7.5,15a7.5,7.5,0,0,1,0-15Z" stroke="none"/>
        <path d="M 7.5 2 C 4.467289924621582 2 2 4.467289924621582 2 7.5 C 2 10.53271007537842 4.467289924621582 13 7.5 13 C 9.234000205993652 13 10.92560005187988 12.18437957763672 11.8095703125 10.92212009429932 L 11.81348037719727 10.91654014587402 L 11.81743049621582 10.91098022460938 C 12.62422943115234 9.775459289550781 13 8.69159984588623 13 7.5 C 13 4.467289924621582 10.53271007537842 2 7.5 2 M 7.5 0 C 11.64213943481445 0 15 3.35785961151123 15 7.5 C 15 9.107150077819824 14.4944896697998 10.59622955322266 13.44779968261719 12.06937980651855 C 12.27622985839844 13.74232959747314 10.03499031066895 15 7.5 15 C 3.35785961151123 15 0 11.64213943481445 0 7.5 C 0 3.35785961151123 3.35785961151123 0 7.5 0 Z" stroke="none" fill="gold"/>
      </g>
      <rect id="Rectangle_8" data-name="Rectangle 8" width="11.432" height="1.524" rx="0.762" transform="matrix(0.574, 0.819, -0.819, 0.574, 14.721, 13.762)" fill="gold"/>
    </g>
  </g>
</svg>
