<svg xmlns="http://www.w3.org/2000/svg" xmlns:xlink="http://www.w3.org/1999/xlink" width="1024" height="1024" viewBox="0 0 1024 1024">
  <defs>
    <linearGradient id="linear-gradient" x1="0.29" y1="0.983" x2="1.064" y2="-0.177" gradientUnits="objectBoundingBox">
      <stop offset="0" stop-color="#d500f9"/>
      <stop offset="0.99" stop-color="gold"/>
      <stop offset="1" stop-color="#2979ff"/>
    </linearGradient>
    <linearGradient id="linear-gradient-2" x1="0.197" y1="0.963" x2="0.735" y2="-0.133" xlink:href="#linear-gradient"/>
    <clipPath id="clip-APPICONTEMP">
      <rect width="1024" height="1024"/>
    </clipPath>
  </defs>
  <g id="APPICONTEMP" clip-path="url(#clip-APPICONTEMP)">
    <rect width="1024" height="1024"/>
    <g id="Group_2737" data-name="Group 2737" transform="translate(-83 7)">
      <g id="Group_2369" data-name="Group 2369" transform="matrix(-0.966, -0.259, 0.259, -0.966, 855.199, 980.925)">
        <g id="Group_2368" data-name="Group 2368" transform="translate(0 0)" style="isolation: isolate">
          <path id="Path_1549" data-name="Path 1549" d="M505.058,288.311c.54-1.9,1.123-3.8,1.62-5.7.6-2.288,1.1-4.581,1.642-6.874.44-1.853.921-3.7,1.324-5.56.508-2.357.916-4.718,1.361-7.075.339-1.806.731-3.6,1.033-5.406.418-2.468.731-4.936,1.075-7.4.238-1.7.53-3.4.736-5.105.3-2.5.5-5,.726-7.493.154-1.678.36-3.357.482-5.036.2-2.711.281-5.422.387-8.134.058-1.456.175-2.913.207-4.369q.135-6.252-.042-12.476c-1.642-56.7-23.125-102.806-57.72-133.853L375.643,0c34.59,31.047,56.074,77.155,57.72,133.858q.175,6.219.037,12.471c-.032,1.472-.148,2.944-.207,4.416-.111,2.7-.191,5.391-.387,8.092-.122,1.695-.334,3.389-.487,5.084-.228,2.478-.418,4.962-.72,7.44-.207,1.716-.5,3.426-.741,5.141-.344,2.457-.657,4.914-1.07,7.372-.3,1.8-.694,3.6-1.033,5.4-.445,2.362-.853,4.724-1.361,7.075-.4,1.869-.89,3.728-1.329,5.592-.535,2.282-1.038,4.57-1.636,6.842-.5,1.922-1.086,3.823-1.626,5.735-.625,2.214-1.218,4.428-1.9,6.631-.593,1.932-1.271,3.849-1.906,5.776-.71,2.161-1.387,4.321-2.145,6.471q-2.478,6.991-5.306,13.906c-.556,1.356-1.154,2.7-1.726,4.051-1.387,3.288-2.817,6.561-4.316,9.812q-1.231,2.684-2.521,5.348-1.525,3.162-3.119,6.307-1.446,2.859-2.96,5.7-1.652,3.114-3.373,6.206c-1.107,1.986-2.224,3.961-3.368,5.926q-1.422,2.43-2.87,4.845-1.883,3.106-3.834,6.185c-1,1.583-2,3.161-3.018,4.729-.853,1.3-1.737,2.584-2.605,3.876-3.8,5.661-7.726,11.253-11.851,16.712-.265.35-.54.683-.8,1.033-3.813,5.01-7.79,9.913-11.862,14.737-.778.922-1.546,1.859-2.335,2.774q-6.2,7.205-12.788,14.1c-.879.927-1.779,1.832-2.669,2.743-4.48,4.6-9.05,9.114-13.763,13.477-.175.163-.344.334-.524.5-5.025,4.634-10.215,9.076-15.484,13.413-1.207.99-2.4,2-3.622,2.975-1.419,1.133-2.849,2.245-4.279,3.358q-2.963,2.3-5.968,4.543-2.208,1.636-4.438,3.236c-1.89,1.361-3.8,2.695-5.724,4.019q-2.852,1.97-5.74,3.876-2.756,1.818-5.55,3.585-2.923,1.851-5.888,3.638c-1.7,1.033-3.416,2.039-5.137,3.035-3.093,1.8-6.212,3.521-9.357,5.211-1.409.757-2.812,1.536-4.231,2.272-4.48,2.32-8.992,4.565-13.567,6.662l-.148.074c-5.385,2.467-10.85,4.717-16.358,6.862-1.372.541-2.754,1.065-4.136,1.584-5.544,2.07-11.131,4.035-16.781,5.766-4.512,1.377-8.992,2.595-13.445,3.718-1.43.36-2.844.662-4.268,1-3.04.714-6.069,1.393-9.076,1.991-1.636.322-3.257.609-4.882.9q-4.226.747-8.4,1.35c-1.626.233-3.246.461-4.861.662-2.9.355-5.767.636-8.626.884-1.414.122-2.838.27-4.242.366q-5.671.388-11.253.487c-.44.005-.884.042-1.324.048-4.141.048-8.24-.037-12.3-.217-1.244-.059-2.473-.17-3.707-.244-2.674-.17-5.327-.371-7.959-.635-2.918-.3-5.788-.7-8.653-1.112-1.626-.239-3.267-.429-4.877-.7-3.421-.588-6.778-1.3-10.109-2.055-1-.227-2.033-.4-3.029-.64-1.043-.255-2.049-.577-3.082-.847-2.785-.73-5.555-1.483-8.277-2.33-1.4-.439-2.759-.948-4.141-1.419-2.335-.794-4.671-1.589-6.953-2.473-1.144-.445-2.272-.926-3.4-1.393q-3.487-1.429-6.889-3c-1.176-.545-2.346-1.1-3.506-1.668q-3.709-1.819-7.308-3.813c-.71-.392-1.435-.758-2.139-1.165q-4.615-2.638-9.029-5.555c-.63-.418-1.244-.863-1.869-1.292q-3.5-2.383-6.868-4.936c-.794-.6-1.589-1.207-2.367-1.821-2.727-2.15-5.412-4.353-8-6.673L82.249,491.7q3.026,2.716,6.19,5.285c.588.476,1.207.916,1.8,1.382.784.62,1.578,1.224,2.367,1.822q3.368,2.558,6.868,4.941c.63.424,1.239.868,1.875,1.287.254.17.5.355.757.525,2.7,1.758,5.46,3.426,8.271,5.036.7.4,1.43.768,2.139,1.165,1.636.905,3.267,1.832,4.941,2.69.778.4,1.589.741,2.372,1.128,1.154.567,2.325,1.117,3.495,1.658,2.266,1.054,4.565,2.05,6.889,3.008,1.133.466,2.256.942,3.4,1.387.519.2,1.017.435,1.536.63,1.774.667,3.611,1.234,5.417,1.848,1.382.471,2.743.974,4.141,1.414,2.732.858,5.523,1.611,8.324,2.347,1.011.264,2,.582,3.029.831.117.032.228.069.344.1.895.217,1.832.35,2.732.556,3.32.753,6.656,1.461,10.056,2.044,1.62.275,3.273.471,4.9.71,2.86.413,5.724.809,8.637,1.106.6.064,1.176.175,1.779.228,2.039.191,4.115.281,6.174.408,1.239.079,2.462.19,3.712.243,4.056.18,8.15.27,12.3.217.434-.006.884-.037,1.324-.047q5.576-.1,11.253-.482c1.4-.1,2.817-.249,4.226-.371,2.87-.243,5.746-.524,8.647-.884,1.61-.2,3.23-.424,4.851-.657q4.186-.6,8.409-1.355c1.626-.286,3.246-.577,4.882-.9,3.008-.593,6.037-1.271,9.071-1.986,1.424-.333,2.844-.635,4.273-1,4.453-1.122,8.933-2.345,13.44-3.722,5.656-1.726,11.237-3.7,16.786-5.767,1.382-.514,2.759-1.043,4.136-1.579,5.5-2.15,10.972-4.4,16.358-6.868l.011-.005.138-.064c4.57-2.1,9.082-4.343,13.562-6.662,1.43-.742,2.833-1.52,4.258-2.283q4.694-2.524,9.325-5.195c.773-.449,1.573-.852,2.341-1.307.953-.562,1.875-1.171,2.822-1.742q2.947-1.778,5.851-3.622,2.812-1.771,5.587-3.6,2.876-1.9,5.719-3.866c.964-.662,1.954-1.287,2.912-1.965s1.875-1.377,2.817-2.054q2.232-1.6,4.438-3.241,3.011-2.24,5.968-4.544c1.43-1.112,2.86-2.219,4.273-3.352.641-.514,1.3-1.006,1.943-1.526.572-.465,1.107-.984,1.684-1.456,5.269-4.337,10.453-8.775,15.479-13.408l.117-.1c.148-.132.281-.281.429-.413,4.7-4.359,9.267-8.87,13.742-13.461.535-.551,1.112-1.054,1.642-1.61.355-.365.678-.762,1.033-1.133q6.569-6.887,12.778-14.091c.3-.344.63-.673.927-1.022.5-.577.943-1.2,1.43-1.778,4.072-4.814,8.039-9.712,11.846-14.716.207-.27.434-.519.635-.789.064-.079.111-.164.175-.243,4.125-5.46,8.044-11.046,11.84-16.7.408-.6.863-1.17,1.266-1.779.466-.7.9-1.425,1.361-2.129,1.017-1.557,2.007-3.119,3-4.691q1.954-3.09,3.844-6.217,1.454-2.4,2.86-4.824c.593-1.012,1.218-2.012,1.8-3.029.551-.964,1.048-1.943,1.583-2.912q1.724-3.082,3.368-6.19,1.517-2.844,2.971-5.715,1.588-3.136,3.108-6.3c.508-1.054,1.059-2.091,1.557-3.145.339-.731.63-1.472.969-2.2,1.5-3.257,2.928-6.53,4.316-9.818.572-1.35,1.17-2.7,1.721-4.051,1.875-4.607,3.659-9.24,5.306-13.9l.1-.238c.731-2.081,1.377-4.178,2.065-6.264.63-1.918,1.3-3.829,1.9-5.751C503.84,292.754,504.433,290.529,505.058,288.311Z" transform="translate(189.914 179.984)" fill="url(#linear-gradient)"/>
          <path id="Path_1550" data-name="Path 1550" d="M485.113,82.1c1.017-.217,2.034-.419,3.056-.625,5.47-1.117,10.919-2.145,16.326-3.013l.434-.063c5.327-.847,10.612-1.546,15.87-2.156.953-.111,1.906-.233,2.86-.333q7.72-.842,15.341-1.335c1-.063,2-.116,2.992-.169,5.211-.3,10.4-.509,15.521-.572.249-.006.492.005.736,0,5-.048,9.945.037,14.859.207.879.032,1.769.053,2.648.09q7.324.318,14.52.958c1.292.112,2.584.239,3.866.366q3.129.318,6.222.688c1.451.175,2.9.36,4.342.556q3.09.42,6.153.906c1.4.217,2.812.44,4.21.678,2.1.36,4.189.752,6.27,1.155,1.3.248,2.611.491,3.908.757,2.309.482,4.6,1,6.874,1.536,1,.227,2,.44,2.981.678,5.041,1.228,10,2.611,14.907,4.093.731.222,1.461.429,2.187.657q7.109,2.208,14.012,4.787c.847.312,1.695.625,2.531.947,4.093,1.567,8.144,3.2,12.121,4.952.5.223,1,.461,1.5.684q5.52,2.469,10.882,5.173c.731.366,1.467.726,2.192,1.1q5.33,2.748,10.506,5.719c.731.419,1.451.858,2.182,1.288q4.393,2.589,8.674,5.337c.736.477,1.483.938,2.219,1.42q4.8,3.153,9.442,6.513c.62.45,1.223.921,1.843,1.377q3.837,2.835,7.556,5.809c.816.651,1.631,1.3,2.436,1.959,2.87,2.357,5.709,4.75,8.473,7.234l.032.027-.01-.011.01.005L666.546,67.652c-2.775-2.494-5.629-4.9-8.51-7.265-.344-.281-.667-.582-1.011-.858-.461-.376-.948-.715-1.409-1.085q-3.725-2.979-7.556-5.808c-.625-.461-1.234-.932-1.859-1.387q-4.639-3.361-9.437-6.513c-.254-.165-.5-.35-.752-.514-.476-.312-.98-.588-1.461-.9q-4.273-2.75-8.679-5.338c-.731-.429-1.451-.869-2.182-1.292q-5.179-2.971-10.511-5.719c-.265-.132-.514-.286-.773-.418-.461-.238-.943-.439-1.4-.667q-5.378-2.708-10.909-5.184c-.493-.223-.98-.46-1.478-.678-3.977-1.747-8.023-3.383-12.111-4.946-.439-.169-.863-.371-1.308-.535-.408-.153-.837-.275-1.25-.428q-6.894-2.558-13.991-4.777c-.731-.228-1.472-.439-2.2-.661-4.9-1.483-9.855-2.86-14.891-4.089-.116-.026-.233-.069-.35-.1-.884-.217-1.8-.392-2.685-.6-2.266-.524-4.538-1.049-6.831-1.52-1.292-.27-2.6-.509-3.9-.757-2.087-.4-4.168-.8-6.275-1.16-1.4-.239-2.8-.456-4.21-.678-2.044-.317-4.088-.625-6.148-.9-1.446-.2-2.891-.382-4.347-.556q-3.1-.381-6.227-.689c-.868-.09-1.721-.206-2.595-.285-.413-.037-.837-.048-1.255-.085q-7.2-.636-14.531-.953c-.879-.042-1.769-.058-2.648-.09C485.945.05,481-.034,476.005.013c-.249,0-.492,0-.741,0-5.126.063-10.3.275-15.516.571-1,.059-2,.111-3,.175q-7.61.5-15.33,1.329c-.958.106-1.922.228-2.886.339-5.253.609-10.533,1.3-15.855,2.15-.143.027-.291.042-.434.069-5.4.863-10.845,1.9-16.31,3.008-1.027.212-2.055.414-3.082.63q-7.951,1.684-15.982,3.728c-1.017.26-2.039.535-3.055.8-5.587,1.462-11.184,3.013-16.818,4.734-5.862,1.8-11.682,3.748-17.475,5.782-1.71.6-3.4,1.234-5.1,1.854Q338,27.52,331.651,30.049c-1.684.673-3.368,1.329-5.047,2.023-5.645,2.325-11.269,4.735-16.829,7.282l-.09.042-.042.015c-.09.042-.175.09-.265.133-7.011,3.219-13.932,6.651-20.8,10.209-2.192,1.139-4.353,2.336-6.529,3.506q-7.244,3.884-14.367,8c-1.191.689-2.42,1.309-3.6,2.007-1.456.858-2.87,1.8-4.321,2.67q-4.536,2.739-9.023,5.581-4.305,2.725-8.563,5.528-4.44,2.924-8.817,5.952c-1.488,1.022-3.013,1.986-4.491,3.029-1.451,1.022-2.865,2.113-4.316,3.151q-3.431,2.462-6.826,4.988-4.615,3.432-9.161,6.968c-2.208,1.716-4.416,3.427-6.6,5.18-.99.794-2.007,1.546-2.992,2.351-2.288,1.853-4.517,3.787-6.778,5.682-1.679,1.409-3.378,2.8-5.041,4.232q-6.212,5.338-12.27,10.871c-.731.667-1.488,1.308-2.213,1.98-.1.085-.191.169-.281.254q-6.895,6.354-13.556,12.953c-1.34,1.319-2.637,2.669-3.961,4-2.272,2.282-4.57,4.543-6.8,6.862-.921.959-1.806,1.944-2.717,2.907-1.552,1.637-3.082,3.288-4.612,4.94q-4.353,4.694-8.594,9.484c-1.477,1.663-2.955,3.325-4.406,5-.773.89-1.573,1.758-2.341,2.653-2.261,2.648-4.453,5.349-6.662,8.033-1.117,1.356-2.261,2.69-3.363,4.051q-5.8,7.173-11.369,14.5c-.132.175-.254.355-.387.53-.842,1.117-1.642,2.256-2.473,3.373q-4.528,6.083-8.9,12.258c-1.308,1.864-2.574,3.755-3.86,5.629-1.6,2.336-3.241,4.649-4.8,7.006-.71,1.065-1.361,2.156-2.06,3.22-1.567,2.4-3.1,4.818-4.628,7.239q-3,4.749-5.91,9.547-2.232,3.694-4.4,7.424c-.916,1.573-1.885,3.12-2.785,4.7-.837,1.467-1.594,2.965-2.415,4.443q-2.645,4.743-5.184,9.526-2.319,4.368-4.554,8.764-2.446,4.822-4.787,9.685c-.784,1.636-1.636,3.241-2.409,4.877-.524,1.123-.969,2.261-1.483,3.383-2.309,5-4.506,10.036-6.64,15.087-.874,2.07-1.8,4.136-2.642,6.216-2.881,7.086-5.624,14.2-8.155,21.373-.048.127-.106.259-.154.386-1.128,3.2-2.118,6.418-3.172,9.627-.969,2.934-2,5.856-2.907,8.8-1.048,3.421-1.965,6.857-2.939,10.289-.821,2.907-1.71,5.8-2.473,8.721-.9,3.426-1.652,6.868-2.468,10.3-.694,2.939-1.462,5.872-2.1,8.817-.741,3.442-1.334,6.89-1.986,10.337-.561,2.949-1.2,5.894-1.695,8.848-.609,3.617-1.064,7.239-1.578,10.861-.392,2.791-.868,5.571-1.2,8.361-.477,3.951-.789,7.9-1.149,11.851-.222,2.462-.53,4.925-.71,7.387-.312,4.38-.455,8.754-.625,13.133-.074,2.033-.238,4.067-.286,6.1q-.214,9.6.064,19.174c2.526,87.222,35.569,158.121,88.762,205.866l82.249,73.824C117.975,736.286,84.926,665.385,82.4,578.17q-.27-9.573-.058-19.18c.048-2.118.217-4.242.3-6.366.164-4.283.3-8.568.609-12.852.191-2.642.519-5.284.763-7.922.344-3.775.641-7.546,1.1-11.316.344-2.859.826-5.719,1.234-8.578.5-3.548.948-7.1,1.546-10.649.492-2.945,1.128-5.883,1.684-8.828.657-3.452,1.255-6.911,2-10.358.641-2.966,1.409-5.92,2.113-8.881.8-3.416,1.557-6.831,2.446-10.236.773-2.944,1.668-5.867,2.5-8.8.964-3.41,1.875-6.82,2.918-10.215.906-2.933,1.933-5.851,2.9-8.775,1.1-3.351,2.155-6.709,3.331-10.045,2.537-7.165,5.28-14.282,8.16-21.367.847-2.086,1.769-4.152,2.642-6.228,2.134-5.052,4.332-10.082,6.64-15.087q1.906-4.139,3.892-8.245,2.343-4.861,4.787-9.69,2.232-4.4,4.554-8.759,2.542-4.8,5.195-9.552,2.542-4.568,5.174-9.1c1.456-2.495,2.918-4.978,4.411-7.451q2.907-4.8,5.915-9.548c1.525-2.414,3.05-4.829,4.618-7.222,2.251-3.442,4.554-6.853,6.879-10.246,1.282-1.87,2.542-3.756,3.844-5.609q4.353-6.179,8.886-12.243c.837-1.127,1.642-2.277,2.489-3.4q5.743-7.6,11.756-15.024c1.1-1.361,2.24-2.7,3.357-4.051q4.44-5.385,9-10.691c1.456-1.679,2.934-3.342,4.411-5q4.242-4.781,8.589-9.479,2.3-2.486,4.623-4.951,4.679-4.932,9.495-9.744c1.329-1.339,2.642-2.7,3.987-4.024q6.815-6.711,13.837-13.2c.71-.656,1.451-1.286,2.166-1.938q6.076-5.544,12.312-10.914c1.663-1.429,3.357-2.816,5.036-4.225,3.236-2.712,6.492-5.406,9.786-8.044,2.176-1.742,4.379-3.452,6.582-5.163q4.551-3.534,9.172-6.979,3.4-2.526,6.831-4.993,4.369-3.131,8.79-6.17,4.392-3.018,8.827-5.957,4.25-2.8,8.557-5.523,4.5-2.844,9.034-5.587,3.932-2.376,7.906-4.671,7.133-4.138,14.393-8.012c2.166-1.165,4.321-2.362,6.5-3.495,6.889-3.569,13.832-7.011,20.864-10.241.079-.037.159-.08.244-.117l.154-.069c5.539-2.542,11.141-4.935,16.765-7.255,1.684-.694,3.384-1.356,5.073-2.034q6.331-2.517,12.725-4.856c1.716-.625,3.426-1.261,5.142-1.864,5.788-2.034,11.6-3.988,17.464-5.777,5.629-1.721,11.232-3.273,16.808-4.735,1.022-.27,2.044-.545,3.066-.8Q477.16,83.784,485.113,82.1Z" fill="url(#linear-gradient-2)"/>
        </g>
      </g>
    </g>
  </g>
</svg>
