<svg xmlns="http://www.w3.org/2000/svg" xmlns:xlink="http://www.w3.org/1999/xlink" width="30" height="30" viewBox="0 0 30 30">
  <defs>
    <clipPath id="clip-SocialsCommentButtonClicked">
      <rect width="30" height="30"/>
    </clipPath>
  </defs>
  <g id="SocialsCommentButtonClicked" clip-path="url(#clip-SocialsCommentButtonClicked)">
    <g id="Icon_awesome-comment-alt" data-name="Icon awesome-comment-alt" transform="translate(2.5 4.5)" fill="#fff">
      <path d="M 8.855080604553223 20.37789726257324 L 8.855080604553223 17.63718795776367 L 8.855080604553223 16.63718795776367 L 7.855081081390381 16.63718795776367 L 3.142030954360962 16.63718795776367 C 1.96091091632843 16.63718795776367 1.000000953674316 15.86855792999268 1.000000953674316 14.92377758026123 L 1.000000953674316 2.713417768478394 C 1.000000953674316 1.768637895584106 1.96091091632843 0.9999978542327881 3.142030954360962 0.9999978542327881 L 21.99421119689941 0.9999978542327881 C 23.17533111572266 0.9999978542327881 24.13624000549316 1.768637895584106 24.13624000549316 2.713417768478394 L 24.13624000549316 14.92377758026123 C 24.13624000549316 15.86855792999268 23.17533111572266 16.63718795776367 21.99421119689941 16.63718795776367 L 14.92464065551758 16.63718795776367 L 14.62902069091797 16.63718795776367 L 14.38091087341309 16.79792785644531 L 8.855080604553223 20.37789726257324 Z" stroke="none"/>
      <path d="M 3.142030715942383 1.999998092651367 C 2.498861312866211 1.999998092651367 2.000001907348633 2.38349723815918 2.000001907348633 2.713417053222656 L 2.000001907348633 14.92376804351807 C 2.000001907348633 15.25368785858154 2.498861312866211 15.63718795776367 3.142030715942383 15.63718795776367 L 9.855071067810059 15.63718795776367 L 9.855071067810059 18.53851890563965 L 14.33340072631836 15.63718795776367 L 21.99421119689941 15.63718795776367 C 22.63738059997559 15.63718795776367 23.1362419128418 15.25368785858154 23.1362419128418 14.92376804351807 L 23.1362419128418 2.713417053222656 C 23.1362419128418 2.38349723815918 22.63738059997559 1.999998092651367 21.99421119689941 1.999998092651367 L 3.142030715942383 1.999998092651367 M 3.142030715942383 -1.9073486328125e-06 L 21.99421119689941 -1.9073486328125e-06 C 23.72724151611328 -1.9073486328125e-06 25.13624000549316 1.216798782348633 25.13624000549316 2.713417053222656 L 25.13624000549316 14.92376804351807 C 25.13624000549316 16.42038726806641 23.72724151611328 17.63718795776367 21.99421119689941 17.63718795776367 L 14.92464065551758 17.63718795776367 L 8.792770385742188 21.60978698730469 C 8.404935836791992 21.8556957244873 7.855070114135742 21.61402893066406 7.855070114135742 21.19853782653809 L 7.855070114135742 17.63718795776367 L 3.142030715942383 17.63718795776367 C 1.409000396728516 17.63718795776367 1.9073486328125e-06 16.42038726806641 1.9073486328125e-06 14.92376804351807 L 1.9073486328125e-06 2.713417053222656 C 1.9073486328125e-06 1.216798782348633 1.409000396728516 -1.9073486328125e-06 3.142030715942383 -1.9073486328125e-06 Z" stroke="none" fill="#fff"/>
    </g>
  </g>
</svg>
