<svg xmlns="http://www.w3.org/2000/svg" xmlns:xlink="http://www.w3.org/1999/xlink" width="79" height="78" viewBox="0 0 79 78">
  <defs>
    <clipPath id="clip-FilesImage">
      <rect width="79" height="78"/>
    </clipPath>
  </defs>
  <g id="FilesImage" clip-path="url(#clip-FilesImage)">
    <path id="Icon_metro-files-empty" data-name="Icon metro-files-empty" d="M51.531,21.6a49.939,49.939,0,0,0-4.8-5.492,49.96,49.96,0,0,0-5.492-4.8C38.4,9.22,37.018,8.979,36.228,8.979H15.957a4.412,4.412,0,0,0-4.407,4.407V53.929a4.412,4.412,0,0,0,4.407,4.407H49.449a4.412,4.412,0,0,0,4.407-4.407V26.606c0-.789-.241-2.168-2.324-5.009Zm-7.3-3a48.082,48.082,0,0,1,4,4.483H39.754V14.6a48.046,48.046,0,0,1,4.483,4Zm6.094,35.33a.893.893,0,0,1-.881.881H15.957a.893.893,0,0,1-.881-.881V13.386a.893.893,0,0,1,.881-.881H36.228V24.844a1.763,1.763,0,0,0,1.763,1.763H50.33ZM34.186,4.252c-2.841-2.083-4.219-2.324-5.009-2.324H8.906A4.412,4.412,0,0,0,4.5,6.335V46.878A4.414,4.414,0,0,0,8.024,51.2V6.335a.893.893,0,0,1,.881-.881h26.82c-.531-.436-1.048-.841-1.54-1.2Z" transform="translate(10.323 8.868)" fill="#fff"/>
  </g>
</svg>
