<svg xmlns="http://www.w3.org/2000/svg" xmlns:xlink="http://www.w3.org/1999/xlink" width="33" height="33" viewBox="0 0 33 33">
  <defs>
    <clipPath id="clip-LikeButton_42">
      <rect width="33" height="33"/>
    </clipPath>
  </defs>
  <g id="LikeButton_42" data-name="LikeButton – 42" clip-path="url(#clip-LikeButton_42)">
    <g id="Subtraction_11" data-name="Subtraction 11" transform="translate(347 978)" fill="#fff">
      <path d="M -321.7702941894531 -949.3472290039062 L -329.9185485839844 -957.4954833984375 L -330.2720947265625 -957.8489990234375 L -330.6256408691406 -957.4954833984375 L -338.7702941894531 -949.350830078125 L -338.7702941894531 -973.9998168945312 C -338.7702941894531 -974.8268432617188 -338.0971069335938 -975.4996337890625 -337.2696228027344 -975.4996337890625 L -323.2701110839844 -975.4996337890625 C -322.443115234375 -975.4996337890625 -321.7702941894531 -974.8268432617188 -321.7702941894531 -973.9998168945312 L -321.7702941894531 -949.3472290039062 Z" stroke="none"/>
      <path d="M -322.2702941894531 -950.5543212890625 L -322.2702941894531 -973.9998168945312 C -322.2702941894531 -974.5510864257812 -322.7188110351562 -974.9996337890625 -323.2701110839844 -974.9996337890625 L -337.2696228027344 -974.9996337890625 C -337.8213806152344 -974.9996337890625 -338.2702941894531 -974.5510864257812 -338.2702941894531 -973.9998168945312 L -338.2702941894531 -950.5579223632812 L -330.9792175292969 -957.8489990234375 L -330.2720947265625 -958.5560913085938 L -329.5649719238281 -957.8489990234375 L -322.2702941894531 -950.5543212890625 M -321.2702941894531 -948.1401977539062 L -321.2720031738281 -948.141845703125 L -330.2720947265625 -957.1419067382812 L -339.2702941894531 -948.1437377929688 L -339.2702941894531 -973.9998168945312 C -339.2702941894531 -975.1025390625 -338.372802734375 -975.9996337890625 -337.2696228027344 -975.9996337890625 L -323.2701110839844 -975.9996337890625 C -322.1674194335938 -975.9996337890625 -321.2702941894531 -975.1025390625 -321.2702941894531 -973.9998168945312 L -321.2702941894531 -948.142578125 L -321.2702941894531 -948.1401977539062 Z" stroke="none" fill="#fff"/>
    </g>
  </g>
</svg>
