<svg xmlns="http://www.w3.org/2000/svg" xmlns:xlink="http://www.w3.org/1999/xlink" width="33" height="33" viewBox="0 0 33 33">
  <defs>
    <clipPath id="clip-LikeButton_18">
      <rect width="33" height="33"/>
    </clipPath>
  </defs>
  <g id="LikeButton_18" data-name="LikeButton – 18" clip-path="url(#clip-LikeButton_18)">
    <g id="Union_4" data-name="Union 4" transform="translate(196.154 -170.392) rotate(-45)" fill="#fff">
      <path d="M -252.1583862304688 12.50010108947754 L -266.467041015625 12.50010108947754 L -266.467041015625 12.4667911529541 L -266.5003356933594 12.4667911529541 L -266.5003356933594 -1.841888904571533 C -266.5003356933594 -6.064528942108154 -263.3500671386719 -9.499898910522461 -259.4778442382812 -9.499898910522461 C -257.639892578125 -9.499898910522461 -255.9017486572266 -8.730319023132324 -254.5836181640625 -7.332939147949219 C -253.2574462890625 -5.926999092102051 -252.5023956298828 -4.044209003448486 -252.4575805664062 -2.031388998031616 L -252.4469299316406 -1.55328893661499 L -251.9688415527344 -1.542638897895813 C -249.9560089111328 -1.497818946838379 -248.0732116699219 -0.7427788972854614 -246.6672821044922 0.583401083946228 C -245.2699127197266 1.90152108669281 -244.5003356933594 3.639681100845337 -244.5003356933594 5.477701187133789 C -244.5003356933594 9.349861145019531 -247.9357299804688 12.50010108947754 -252.1583862304688 12.50010108947754 Z" stroke="none"/>
      <path d="M -252.1583862304688 12.00010108947754 C -248.21142578125 12.00010108947754 -245.0003356933594 9.074161529541016 -245.0003356933594 5.477701187133789 C -245.0003356933594 3.778781175613403 -245.7141876220703 2.169790983200073 -247.0103759765625 0.9471210837364197 C -248.3261413574219 -0.2940189242362976 -250.0910491943359 -1.000708937644958 -251.9799652099609 -1.042768955230713 L -252.9361724853516 -1.064058899879456 L -252.9574584960938 -2.020258903503418 C -252.99951171875 -3.90916895866394 -253.7062072753906 -5.674068927764893 -254.9473419189453 -6.989849090576172 C -256.1700134277344 -8.286048889160156 -257.7789916992188 -8.999898910522461 -259.4778442382812 -8.999898910522461 C -263.0743408203125 -8.999898910522461 -266.0003356933594 -5.78882884979248 -266.0003356933594 -1.841888904571533 L -266.0003356933594 11.9667911529541 L -265.967041015625 11.9667911529541 L -265.967041015625 12.00010108947754 L -252.1583862304688 12.00010108947754 M -252.1583862304688 13.00010108947754 L -266.967041015625 13.00010108947754 L -266.967041015625 12.9667911529541 L -267.0003356933594 12.9667911529541 L -267.0003356933594 -1.841888904571533 C -267.0003356933594 -6.347468852996826 -263.6324157714844 -9.999898910522461 -259.4778442382812 -9.999898910522461 C -255.3852844238281 -9.999898910522461 -252.0559539794922 -6.455358982086182 -251.9577026367188 -2.042518854141235 C -247.5448455810547 -1.94425892829895 -244.0003356933594 1.385021090507507 -244.0003356933594 5.477701187133789 C -244.0003356933594 9.63214111328125 -247.6528167724609 13.00010108947754 -252.1583862304688 13.00010108947754 Z" stroke="none" fill="#fff"/>
    </g>
  </g>
</svg>
