<svg xmlns="http://www.w3.org/2000/svg" xmlns:xlink="http://www.w3.org/1999/xlink" width="30" height="30" viewBox="0 0 30 30">
  <defs>
    <clipPath id="clip-FavoriteSharePageIcon">
      <rect width="30" height="30"/>
    </clipPath>
  </defs>
  <g id="FavoriteSharePageIcon" clip-path="url(#clip-FavoriteSharePageIcon)">
    <g id="Subtraction_11" data-name="Subtraction 11" transform="translate(349.27 984.018)" fill="none">
      <path d="M-329.307-962.035h0l-4.962-4.489-4.962,4.488a2.017,2.017,0,0,1-.037-.387V-974a2,2,0,0,1,2-2h6a2,2,0,0,1,2,2v11.578a2.014,2.014,0,0,1-.037.387Z" stroke="none"/>
      <path d="M -330.2695007324219 -964.2534790039062 L -330.2695007324219 -974.000732421875 C -330.2695007324219 -974.552001953125 -330.718017578125 -975.0005493164062 -331.2693176269531 -975.0005493164062 L -337.2705078125 -975.0005493164062 C -337.8218078613281 -975.0005493164062 -338.2702941894531 -974.552001953125 -338.2702941894531 -974.000732421875 L -338.2702941894531 -964.255126953125 L -334.2708129882812 -967.872802734375 L -330.2695007324219 -964.2534790039062 M -329.3072204589844 -962.0346069335938 L -329.3085327148438 -962.0358276367188 L -334.2708129882812 -966.5244140625 L -339.2328796386719 -962.0360107421875 C -339.2582702636719 -962.1657104492188 -339.2702941894531 -962.2957153320312 -339.2702941894531 -962.423095703125 L -339.2702941894531 -974.000732421875 C -339.2702941894531 -975.1034545898438 -338.3731994628906 -976.0005493164062 -337.2705078125 -976.0005493164062 L -331.2693176269531 -976.0005493164062 C -330.1666259765625 -976.0005493164062 -329.2695007324219 -975.1034545898438 -329.2695007324219 -974.000732421875 L -329.2695007324219 -962.423095703125 C -329.2695007324219 -962.29296875 -329.2820739746094 -962.1629028320312 -329.306884765625 -962.036376953125 L -329.3072204589844 -962.0346069335938 Z" stroke="none" fill="#fff"/>
    </g>
  </g>
</svg>
