<svg xmlns="http://www.w3.org/2000/svg" xmlns:xlink="http://www.w3.org/1999/xlink" width="60" height="60" viewBox="0 0 60 60">
  <defs>
    <clipPath id="clip-ShareIconAddToPlaylist">
      <rect width="60" height="60"/>
    </clipPath>
  </defs>
  <g id="ShareIconAddToPlaylist" clip-path="url(#clip-ShareIconAddToPlaylist)">
    <g id="Rectangle_23" data-name="Rectangle 23" transform="translate(4.5 14)" fill="#fff" stroke="#fff" stroke-width="1">
      <rect width="48" height="2" stroke="none"/>
      <rect x="0.5" y="0.5" width="47" height="1" fill="none"/>
    </g>
    <g id="Subtraction_10" data-name="Subtraction 10" transform="translate(4.5 29)" fill="#fff">
      <path d="M 22.50006103515625 1.5 L 0.50006103515625 1.5 L 0.50006103515625 0.5009586811065674 L 22.50006103515625 0.5000212788581848 L 22.50006103515625 1.5 Z" stroke="none"/>
      <path d="M 23.00006103515625 2 L 22.99792098999023 2 L 6.103515625e-05 2 L 6.103515625e-05 0.0009800000116229057 L 23.00006103515625 0 L 23.00006103515625 1.998049974441528 L 23.00006103515625 2 Z" stroke="none" fill="#fff"/>
    </g>
    <g id="Subtraction_9" data-name="Subtraction 9" transform="translate(4.5 44)" fill="#fff">
      <path d="M 24.5 1.5 L 0.5 1.5 L 0.5 0.5 L 24.5 0.5 L 24.5 1.5 Z" stroke="none"/>
      <path d="M 25 2 L 24.99773979187012 2 L -1.77635683940025e-15 2 L -1.77635683940025e-15 0 L 25 0 L 25 1.998049974441528 L 25 2 Z" stroke="none" fill="#fff"/>
    </g>
    <g id="Group_2788" data-name="Group 2788" transform="translate(33.086 23.529)">
      <g id="Rectangle_24" data-name="Rectangle 24" transform="translate(12.387 0) rotate(90)" fill="#fff" stroke="#fff" stroke-width="1">
        <rect width="22.869" height="1.906" stroke="none"/>
        <rect x="0.5" y="0.5" width="21.869" height="0.906" fill="none"/>
      </g>
      <g id="Rectangle_25" data-name="Rectangle 25" transform="translate(0 10.482)" fill="#fff" stroke="#fff" stroke-width="1">
        <rect width="22.869" height="1.906" stroke="none"/>
        <rect x="0.5" y="0.5" width="21.869" height="0.906" fill="none"/>
      </g>
    </g>
  </g>
</svg>
