<?xml version="1.0" encoding="utf-8"?>
<!-- Generator: Adobe Illustrator 25.1.0, SVG Export Plug-In . SVG Version: 6.00 Build 0)  -->
<svg version="1.1" id="Layer_1" xmlns="http://www.w3.org/2000/svg" xmlns:xlink="http://www.w3.org/1999/xlink" x="0px" y="0px"
	 viewBox="0 0 25 25" style="enable-background:new 0 0 25 25;" xml:space="preserve">
<style type="text/css">
	.st0{fill:#FFFFFF;}
</style>
<g>
	<g>
		<path class="st0" d="M5.46,13.02v8.55c0,0.51,0.41,0.92,0.92,0.92c0.51,0,0.92-0.41,0.92-0.92v-8.55c0-0.51-0.41-0.92-0.92-0.92
			C5.87,12.1,5.46,12.51,5.46,13.02z"/>
		<path class="st0" d="M2.56,22.5h2.03V12.35c0.01-0.05,0.01-0.1,0.01-0.15c0-4.38,3.54-7.94,7.89-7.94c4.35,0,7.89,3.56,7.89,7.94
			c0,0.07,0.01,0.13,0.02,0.2v10.1h2.03c1.41,0,2.56-1.18,2.56-2.65v-5.29c0-1.21-0.78-2.22-1.85-2.54C23.05,6.2,18.31,1.5,12.5,1.5
			C6.68,1.5,1.94,6.2,1.85,12.02C0.78,12.34,0,13.36,0,14.56v5.29C0,21.31,1.15,22.5,2.56,22.5z"/>
		<path class="st0" d="M17.7,13.02v8.55c0,0.51,0.41,0.92,0.92,0.92c0.51,0,0.92-0.41,0.92-0.92v-8.55c0-0.51-0.41-0.92-0.92-0.92
			C18.11,12.1,17.7,12.51,17.7,13.02z"/>
	</g>
</g>
</svg>
