<svg xmlns="http://www.w3.org/2000/svg" xmlns:xlink="http://www.w3.org/1999/xlink" width="33" height="33" viewBox="0 0 33 33">
  <defs>
    <clipPath id="clip-LikeButton_29">
      <rect width="33" height="33"/>
    </clipPath>
  </defs>
  <g id="LikeButton_29" data-name="LikeButton – 29" clip-path="url(#clip-LikeButton_29)">
    <g id="Group_4" data-name="Group 4" transform="translate(0 -1)">
      <path id="Subtraction_3" data-name="Subtraction 3" d="M-597-1019.5h-20a2.5,2.5,0,0,1-2.5-2.5v-10a2.5,2.5,0,0,1,2.5-2.5h20a2.5,2.5,0,0,1,2.5,2.5v10A2.5,2.5,0,0,1-597-1019.5Zm-18.974-14.992h0Z" transform="translate(623.5 1045)" fill="none" stroke="#fff" stroke-width="1"/>
      <rect id="Rectangle_7" data-name="Rectangle 7" width="1" height="12" transform="translate(16 3)" fill="#fff"/>
      <path id="Polygon_2" data-name="Polygon 2" d="M3.88.09a.2.2,0,0,1,.24,0l3.4,2.55A.2.2,0,0,1,7.4,3H.6a.2.2,0,0,1-.12-.36Z" transform="translate(12.5 2)" fill="#fff"/>
    </g>
  </g>
</svg>
