<svg xmlns="http://www.w3.org/2000/svg" xmlns:xlink="http://www.w3.org/1999/xlink" width="45" height="45" viewBox="0 0 45 45">
  <defs>
    <clipPath id="clip-RepostShareIcon">
      <rect width="45" height="45"/>
    </clipPath>
  </defs>
  <g id="RepostShareIcon" clip-path="url(#clip-RepostShareIcon)">
    <g id="exchange" transform="translate(11 12)">
      <g id="Group_3083" data-name="Group 3083" transform="translate(0)">
        <path id="Path_1664" data-name="Path 1664" d="M21.946,232.75a2.194,2.194,0,0,1-2.194,2.194H2.5l2.889-2.889-1.034-1.034L.217,235.159a.732.732,0,0,0,0,1.034l4.138,4.138L5.389,239.3,2.5,236.407H19.752a3.662,3.662,0,0,0,3.657-3.657v-2.926H21.946Zm0,0" transform="translate(-0.003 -219.318)" fill="#fff"/>
        <path id="Path_1665" data-name="Path 1665" d="M1.463,7.581A2.194,2.194,0,0,1,3.657,5.386H20.909L18.02,8.276,19.054,9.31l4.138-4.138a.732.732,0,0,0,0-1.034L19.054,0,18.02,1.034l2.889,2.889H3.657A3.662,3.662,0,0,0,0,7.581v2.926H1.463Zm0,0" transform="translate(0)" fill="#fff"/>
      </g>
    </g>
  </g>
</svg>
