<svg xmlns="http://www.w3.org/2000/svg" xmlns:xlink="http://www.w3.org/1999/xlink" width="80" height="50" viewBox="0 0 80 50">
  <defs>
    <clipPath id="clip-Crown">
      <rect width="80" height="50"/>
    </clipPath>
  </defs>
  <g id="Crown" clip-path="url(#clip-Crown)">
    <g id="crown-2" transform="translate(3.581 0.278)">
      <path id="Path_1570" data-name="Path 1570" d="M91.146,85.233H42.453a2.248,2.248,0,0,1-1.858-.982c-6.424-9.421-6.917-27.544-6.955-30.234,0-.105,0-.212,0-.318a2.249,2.249,0,0,1,2.245-2.249h0a2.249,2.249,0,0,1,2.249,2.24c0,.015,0,.148.006.383A11.916,11.916,0,0,0,61.967,53.7a2.249,2.249,0,0,1,2.249-2.249h5.166A2.249,2.249,0,0,1,71.63,53.7a11.917,11.917,0,0,0,23.828.357c0-.225.005-.351.005-.365a2.249,2.249,0,0,1,2.249-2.241h0A2.249,2.249,0,0,1,99.961,53.7c0,.107,0,.213,0,.319C99.92,56.706,99.427,74.83,93,84.251A2.249,2.249,0,0,1,91.146,85.233Zm0,0" transform="translate(-28.62 -43.776)" fill="#fff780"/>
      <path id="Path_1571" data-name="Path 1571" d="M286.92,51.449h0a2.249,2.249,0,0,0-2.249,2.24c0,.015,0,.141-.005.366a11.916,11.916,0,0,1-23.827-.357,2.249,2.249,0,0,0-2.249-2.249H256V85.232H280.35a2.249,2.249,0,0,0,1.858-.982c6.424-9.421,6.917-27.545,6.955-30.234,0-.105,0-.212,0-.318A2.25,2.25,0,0,0,286.92,51.449Zm0,0" transform="translate(-217.825 -43.776)" fill="#ffc02e"/>
      <path id="Path_1572" data-name="Path 1572" d="M214.547,0a7.265,7.265,0,1,0,7.266,7.266A7.274,7.274,0,0,0,214.547,0Zm0,0" transform="translate(-176.368 0)" fill="#ffc02e"/>
      <path id="Path_1573" data-name="Path 1573" d="M256,0V14.531A7.266,7.266,0,0,0,256,0Zm0,0" transform="translate(-217.825)" fill="#ffa73b"/>
      <path id="Path_1574" data-name="Path 1574" d="M7.266,37.6a7.266,7.266,0,1,0,7.265,7.266A7.274,7.274,0,0,0,7.266,37.6Zm0,0" transform="translate(0 -31.99)" fill="#ffc02e"/>
      <path id="Path_1575" data-name="Path 1575" d="M421.832,37.6a7.265,7.265,0,1,0,7.266,7.266A7.274,7.274,0,0,0,421.832,37.6Zm0,0" transform="translate(-352.74 -31.99)" fill="#ffa73b"/>
      <path id="Path_1576" data-name="Path 1576" d="M128.613,276.353H79.921a2.249,2.249,0,0,1-2.249-2.249V267.4h53.19V274.1A2.249,2.249,0,0,1,128.613,276.353Zm0,0" transform="translate(-66.088 -227.52)" fill="#ffc02e"/>
      <path id="Path_1577" data-name="Path 1577" d="M256,276.353H280.35A2.249,2.249,0,0,0,282.6,274.1V267.4H256Zm0,0" transform="translate(-217.825 -227.52)" fill="#ffa73b"/>
    </g>
  </g>
</svg>
