<svg xmlns="http://www.w3.org/2000/svg" xmlns:xlink="http://www.w3.org/1999/xlink" width="40" height="40" viewBox="0 0 40 40">
  <defs>
    <clipPath id="clip-BookmarkedShare">
      <rect width="40" height="40"/>
    </clipPath>
  </defs>
  <g id="BookmarkedShare" clip-path="url(#clip-BookmarkedShare)">
    <g id="Group_2628" data-name="Group 2628" transform="translate(-65 -576)">
      <g id="Group_2625" data-name="Group 2625" transform="translate(65 576)">
        <g id="Group_2181" data-name="Group 2181">
          <g id="Group_2022" data-name="Group 2022">
            <circle id="Ellipse_304" data-name="Ellipse 304" cx="20" cy="20" r="20" fill="#121212"/>
          </g>
        </g>
      </g>
      <path id="Path_641" data-name="Path 641" d="M21.571,6H11.929A2,2,0,0,0,10.01,8.082L10,24.736l6.75-3.123,6.75,3.123V8.082A2.009,2.009,0,0,0,21.571,6Zm0,15.613L16.75,19.349l-4.821,2.264V8.082h9.643Z" transform="translate(68 580.999)" fill="#fff"/>
      <path id="Path_1562" data-name="Path 1562" d="M20.283,6h-8.57a1.779,1.779,0,0,0-1.705,1.85L10,22.65l6-2.775,6,2.775V7.85A1.785,1.785,0,0,0,20.283,6Zm0,13.875L16,17.863l-4.285,2.012V7.85h8.57Z" transform="translate(68 581)" fill="#fff"/>
      <path id="Path_1563" data-name="Path 1563" d="M18.66,6H11.443a1.5,1.5,0,0,0-1.436,1.558L10,20.021l5.052-2.337L20.1,20.021V7.558A1.5,1.5,0,0,0,18.66,6Zm0,11.685L15.052,15.99l-3.608,1.694V7.558H18.66Z" transform="translate(69 582)" fill="#fff"/>
      <path id="Path_1564" data-name="Path 1564" d="M17.71,6H11.285a1.334,1.334,0,0,0-1.279,1.387L10,18.484,14.5,16.4,19,18.484V7.387A1.339,1.339,0,0,0,17.71,6Zm0,10.4L14.5,14.9,11.285,16.4V7.387H17.71Z" transform="translate(69 582)" fill="#fff"/>
      <path id="Path_1565" data-name="Path 1565" d="M16.9,6H11.149a1.193,1.193,0,0,0-1.143,1.24L10,17.164,14.022,15.3l4.022,1.861V7.24A1.2,1.2,0,0,0,16.9,6Zm0,9.3-2.873-1.349L11.149,15.3V7.24H16.9Z" transform="translate(69 582)" fill="#fff"/>
      <rect id="Rectangle_2798" data-name="Rectangle 2798" width="10" height="11" transform="translate(80 589)" fill="#fff"/>
    </g>
  </g>
</svg>
